<?xml version="1.0" encoding="UTF-8" standalone="no"?>
<!DOCTYPE svg PUBLIC "-//W3C//DTD SVG 1.1//EN" "http://www.w3.org/Graphics/SVG/1.1/DTD/svg11.dtd">
<svg width="100%" height="100%" viewBox="0 0 100 100" version="1.1" xmlns="http://www.w3.org/2000/svg" xmlns:xlink="http://www.w3.org/1999/xlink" xml:space="preserve" xmlns:serif="http://www.serif.com/" style="fill-rule:evenodd;clip-rule:evenodd;stroke-linejoin:round;stroke-miterlimit:2;">
    <g transform="matrix(14.2857,0,0,14.2857,-414.286,-557.143)">
        <circle cx="32.5" cy="42.5" r="3.5" style="fill:white;fill-opacity:0.98;"/>
    </g>
    <g transform="matrix(2.23286,0,0,2.23286,-22.568,-44.8966)">
        <circle cx="32.5" cy="42.5" r="3.5"/>
    </g>
    <g transform="matrix(1.3025,0,0,1.3025,-15.1251,-15.1251)">
        <g>
            <g transform="matrix(1.14286,0,0,1.14286,-1.14286,1.42857)">
                <circle cx="32.5" cy="42.5" r="3.5" style="fill-opacity:0.8;"/>
            </g>
            <g transform="matrix(0.808122,-0.808122,0.808122,0.808122,-20.5086,51.8183)">
                <circle cx="32.5" cy="42.5" r="3.5" style="fill-opacity:0.8;"/>
            </g>
            <g transform="matrix(-1.96014e-15,-1.14286,1.14286,-1.96014e-15,1.42857,101.143)">
                <circle cx="32.5" cy="42.5" r="3.5" style="fill-opacity:0.8;"/>
            </g>
            <g transform="matrix(-0.808122,-0.808122,0.808122,-0.808122,51.8183,120.509)">
                <circle cx="32.5" cy="42.5" r="3.5" style="fill-opacity:0.8;"/>
            </g>
            <g transform="matrix(-1.14286,3.92028e-15,-3.92028e-15,-1.14286,101.143,98.5714)">
                <circle cx="32.5" cy="42.5" r="3.5" style="fill-opacity:0.8;"/>
            </g>
            <g transform="matrix(-0.808122,0.808122,-0.808122,-0.808122,120.509,48.1817)">
                <circle cx="32.5" cy="42.5" r="3.5" style="fill-opacity:0.8;"/>
            </g>
            <g transform="matrix(5.88043e-15,1.14286,-1.14286,5.88043e-15,98.5714,-1.14286)">
                <circle cx="32.5" cy="42.5" r="3.5" style="fill-opacity:0.8;"/>
            </g>
            <g transform="matrix(0.808122,0.808122,-0.808122,0.808122,48.1817,-20.5086)">
                <circle cx="32.5" cy="42.5" r="3.5" style="fill-opacity:0.8;"/>
            </g>
        </g>
    </g>
    <g transform="matrix(1.27748,-0.254106,0.254106,1.27748,-26.5791,-1.16849)">
        <g>
            <g transform="matrix(0.857143,0,0,0.857143,-2.60714,13.5714)">
                <circle cx="32.5" cy="42.5" r="3.5" style="fill-opacity:0.6;"/>
            </g>
            <g transform="matrix(0.791897,-0.328014,0.328014,0.791897,-12.5433,36.4763)">
                <circle cx="32.5" cy="42.5" r="3.5" style="fill-opacity:0.6;"/>
            </g>
            <g transform="matrix(0.606092,-0.606092,0.606092,0.606092,-12.9578,61.44)">
                <circle cx="32.5" cy="42.5" r="3.5" style="fill-opacity:0.6;"/>
            </g>
            <g transform="matrix(0.328014,-0.791897,0.791897,0.328014,-3.78749,84.6621)">
                <circle cx="32.5" cy="42.5" r="3.5" style="fill-opacity:0.6;"/>
            </g>
            <g transform="matrix(-1.47011e-15,-0.857143,0.857143,-1.47011e-15,13.5714,102.607)">
                <circle cx="32.5" cy="42.5" r="3.5" style="fill-opacity:0.6;"/>
            </g>
            <g transform="matrix(-0.328014,-0.791897,0.791897,-0.328014,36.4763,112.543)">
                <circle cx="32.5" cy="42.5" r="3.5" style="fill-opacity:0.6;"/>
            </g>
            <g transform="matrix(-0.606092,-0.606092,0.606092,-0.606092,61.44,112.958)">
                <circle cx="32.5" cy="42.5" r="3.5" style="fill-opacity:0.6;"/>
            </g>
            <g transform="matrix(-0.791897,-0.328014,0.328014,-0.791897,84.6621,103.787)">
                <circle cx="32.5" cy="42.5" r="3.5" style="fill-opacity:0.6;"/>
            </g>
            <g transform="matrix(-0.857143,2.94021e-15,-2.94021e-15,-0.857143,102.607,86.4286)">
                <circle cx="32.5" cy="42.5" r="3.5" style="fill-opacity:0.6;"/>
            </g>
            <g transform="matrix(-0.791897,0.328014,-0.328014,-0.791897,112.543,63.5237)">
                <circle cx="32.5" cy="42.5" r="3.5" style="fill-opacity:0.6;"/>
            </g>
            <g transform="matrix(-0.606092,0.606092,-0.606092,-0.606092,112.958,38.56)">
                <circle cx="32.5" cy="42.5" r="3.5" style="fill-opacity:0.6;"/>
            </g>
            <g transform="matrix(-0.328014,0.791897,-0.791897,-0.328014,103.787,15.3379)">
                <circle cx="32.5" cy="42.5" r="3.5" style="fill-opacity:0.6;"/>
            </g>
            <g transform="matrix(4.41032e-15,0.857143,-0.857143,4.41032e-15,86.4286,-2.60714)">
                <circle cx="32.5" cy="42.5" r="3.5" style="fill-opacity:0.6;"/>
            </g>
            <g transform="matrix(0.328014,0.791897,-0.791897,0.328014,63.5237,-12.5433)">
                <circle cx="32.5" cy="42.5" r="3.5" style="fill-opacity:0.6;"/>
            </g>
            <g transform="matrix(0.606092,0.606092,-0.606092,0.606092,38.56,-12.9578)">
                <circle cx="32.5" cy="42.5" r="3.5" style="fill-opacity:0.6;"/>
            </g>
            <g transform="matrix(0.791897,0.328014,-0.328014,0.791897,15.3379,-3.78749)">
                <circle cx="32.5" cy="42.5" r="3.5" style="fill-opacity:0.6;"/>
            </g>
        </g>
    </g>
    <g transform="matrix(1.3025,0,0,1.3025,-15.1251,-15.1251)">
        <g>
            <g transform="matrix(0.571429,0,0,0.571429,-1.1203,25.7143)">
                <circle cx="32.5" cy="42.5" r="3.5" style="fill-opacity:0.4;"/>
            </g>
            <g transform="matrix(0.560449,-0.11148,0.11148,0.560449,-4.87595,36.154)">
                <circle cx="32.5" cy="42.5" r="3.5" style="fill-opacity:0.4;"/>
            </g>
            <g transform="matrix(0.527931,-0.218676,0.218676,0.527931,-6.52274,47.1258)">
                <circle cx="32.5" cy="42.5" r="3.5" style="fill-opacity:0.4;"/>
            </g>
            <g transform="matrix(0.475125,-0.317469,0.317469,0.475125,-5.9974,58.2081)">
                <circle cx="32.5" cy="42.5" r="3.5" style="fill-opacity:0.4;"/>
            </g>
            <g transform="matrix(0.404061,-0.404061,0.404061,0.404061,-3.3201,68.9749)">
                <circle cx="32.5" cy="42.5" r="3.5" style="fill-opacity:0.4;"/>
            </g>
            <g transform="matrix(0.317469,-0.475125,0.475125,0.317469,1.40625,79.0126)">
                <circle cx="32.5" cy="42.5" r="3.5" style="fill-opacity:0.4;"/>
            </g>
            <g transform="matrix(0.218676,-0.527931,0.527931,0.218676,8.00003,87.9353)">
                <circle cx="32.5" cy="42.5" r="3.5" style="fill-opacity:0.4;"/>
            </g>
            <g transform="matrix(0.11148,-0.560449,0.560449,0.11148,16.2079,95.4001)">
                <circle cx="32.5" cy="42.5" r="3.5" style="fill-opacity:0.4;"/>
            </g>
            <g transform="matrix(3.08017e-15,-0.571429,0.571429,3.08017e-15,25.7143,101.12)">
                <circle cx="32.5" cy="42.5" r="3.5" style="fill-opacity:0.4;"/>
            </g>
            <g transform="matrix(-0.11148,-0.560449,0.560449,-0.11148,36.154,104.876)">
                <circle cx="32.5" cy="42.5" r="3.5" style="fill-opacity:0.4;"/>
            </g>
            <g transform="matrix(-0.218676,-0.527931,0.527931,-0.218676,47.1258,106.523)">
                <circle cx="32.5" cy="42.5" r="3.5" style="fill-opacity:0.4;"/>
            </g>
            <g transform="matrix(-0.317469,-0.475125,0.475125,-0.317469,58.2081,105.997)">
                <circle cx="32.5" cy="42.5" r="3.5" style="fill-opacity:0.4;"/>
            </g>
            <g transform="matrix(-0.404061,-0.404061,0.404061,-0.404061,68.9749,103.32)">
                <circle cx="32.5" cy="42.5" r="3.5" style="fill-opacity:0.4;"/>
            </g>
            <g transform="matrix(-0.475125,-0.317469,0.317469,-0.475125,79.0126,98.5938)">
                <circle cx="32.5" cy="42.5" r="3.5" style="fill-opacity:0.4;"/>
            </g>
            <g transform="matrix(-0.527931,-0.218676,0.218676,-0.527931,87.9353,92)">
                <circle cx="32.5" cy="42.5" r="3.5" style="fill-opacity:0.4;"/>
            </g>
            <g transform="matrix(-0.560449,-0.11148,0.11148,-0.560449,95.4001,83.7921)">
                <circle cx="32.5" cy="42.5" r="3.5" style="fill-opacity:0.4;"/>
            </g>
            <g transform="matrix(-0.571429,-6.16035e-15,6.16035e-15,-0.571429,101.12,74.2857)">
                <circle cx="32.5" cy="42.5" r="3.5" style="fill-opacity:0.4;"/>
            </g>
            <g transform="matrix(-0.560449,0.11148,-0.11148,-0.560449,104.876,63.846)">
                <circle cx="32.5" cy="42.5" r="3.5" style="fill-opacity:0.4;"/>
            </g>
            <g transform="matrix(-0.527931,0.218676,-0.218676,-0.527931,106.523,52.8742)">
                <circle cx="32.5" cy="42.5" r="3.5" style="fill-opacity:0.4;"/>
            </g>
            <g transform="matrix(-0.475125,0.317469,-0.317469,-0.475125,105.997,41.7919)">
                <circle cx="32.5" cy="42.5" r="3.5" style="fill-opacity:0.4;"/>
            </g>
            <g transform="matrix(-0.404061,0.404061,-0.404061,-0.404061,103.32,31.0251)">
                <circle cx="32.5" cy="42.5" r="3.5" style="fill-opacity:0.4;"/>
            </g>
            <g transform="matrix(-0.317469,0.475125,-0.475125,-0.317469,98.5938,20.9874)">
                <circle cx="32.5" cy="42.5" r="3.5" style="fill-opacity:0.4;"/>
            </g>
            <g transform="matrix(-0.218676,0.527931,-0.527931,-0.218676,92,12.0647)">
                <circle cx="32.5" cy="42.5" r="3.5" style="fill-opacity:0.4;"/>
            </g>
            <g transform="matrix(-0.11148,0.560449,-0.560449,-0.11148,83.7921,4.59987)">
                <circle cx="32.5" cy="42.5" r="3.5" style="fill-opacity:0.4;"/>
            </g>
            <g transform="matrix(-9.24052e-15,0.571429,-0.571429,-9.24052e-15,74.2857,-1.1203)">
                <circle cx="32.5" cy="42.5" r="3.5" style="fill-opacity:0.4;"/>
            </g>
            <g transform="matrix(0.11148,0.560449,-0.560449,0.11148,63.846,-4.87595)">
                <circle cx="32.5" cy="42.5" r="3.5" style="fill-opacity:0.4;"/>
            </g>
            <g transform="matrix(0.218676,0.527931,-0.527931,0.218676,52.8742,-6.52274)">
                <circle cx="32.5" cy="42.5" r="3.5" style="fill-opacity:0.4;"/>
            </g>
            <g transform="matrix(0.317469,0.475125,-0.475125,0.317469,41.7919,-5.9974)">
                <circle cx="32.5" cy="42.5" r="3.5" style="fill-opacity:0.4;"/>
            </g>
            <g transform="matrix(0.404061,0.404061,-0.404061,0.404061,31.0251,-3.3201)">
                <circle cx="32.5" cy="42.5" r="3.5" style="fill-opacity:0.4;"/>
            </g>
            <g transform="matrix(0.475125,0.317469,-0.317469,0.475125,20.9874,1.40625)">
                <circle cx="32.5" cy="42.5" r="3.5" style="fill-opacity:0.4;"/>
            </g>
            <g transform="matrix(0.527931,0.218676,-0.218676,0.527931,12.0647,8.00003)">
                <circle cx="32.5" cy="42.5" r="3.5" style="fill-opacity:0.4;"/>
            </g>
            <g transform="matrix(0.560449,0.11148,-0.11148,0.560449,4.59987,16.2079)">
                <circle cx="32.5" cy="42.5" r="3.5" style="fill-opacity:0.4;"/>
            </g>
        </g>
    </g>
</svg>
