<?xml version="1.0" encoding="UTF-8" standalone="no"?>
<!DOCTYPE svg PUBLIC "-//W3C//DTD SVG 1.1//EN" "http://www.w3.org/Graphics/SVG/1.1/DTD/svg11.dtd">
<svg width="100%" height="100%" viewBox="0 0 512 512" version="1.1" xmlns="http://www.w3.org/2000/svg" xmlns:xlink="http://www.w3.org/1999/xlink" xml:space="preserve" xmlns:serif="http://www.serif.com/" style="fill-rule:evenodd;clip-rule:evenodd;stroke-linejoin:round;stroke-miterlimit:2;">
    <g transform="matrix(1,0,0,1,0,-938)">
        <g transform="matrix(0.430909,0,0,1.01844,255.528,-18.2241)">
            <rect id="Moon" x="-592.999" y="938.909" width="1188.19" height="502.729" style="fill:none;"/>
            <g id="Moon1" serif:id="Moon">
                <g id="Base" transform="matrix(2.71897,0,0,1.15041,-750.883,-183.32)">
                    <circle cx="276.676" cy="1194" r="212.993" style="fill:url(#_Linear1);"/>
                </g>
                <g transform="matrix(1.17163,0,0,1.17163,0.108849,-204.286)">
                    <g transform="matrix(2.32068,0,0,0.981892,-592.999,17.8941)">
                        <path d="M278.352,1045.82C272.02,1042.62 268.532,1055.12 263.483,1054.35C255.798,1053.19 247.444,1052.83 241.067,1059.36C230.477,1070.21 243.3,1091.04 243.3,1091.04C243.3,1091.04 243.092,1095.39 250.529,1101.3C257.965,1107.22 265.731,1110.73 275.837,1111.25C285.943,1111.77 290.892,1113.92 297.502,1108.26C304.112,1102.6 311.075,1102.81 310.881,1093.61C310.687,1084.41 312.537,1074.78 302.297,1066.88C292.057,1058.98 287.315,1050.35 278.352,1045.82Z" style="fill:url(#_Linear2);"/>
                    </g>
                    <g transform="matrix(2.32068,0,0,0.981892,-592.999,17.8941)">
                        <path d="M401.383,1058.06C396.838,1054.97 384.987,1043.09 378.69,1045.29C370.798,1048.06 369.341,1055.46 370.928,1060.39C372.516,1065.32 374.502,1067.88 378.043,1073.01C381.583,1078.14 387.708,1082.74 391.832,1084.75C395.957,1086.77 402.313,1092.2 405.217,1088.71C408.12,1085.22 409.622,1085.21 408.318,1078.69C407.014,1072.17 406.22,1061.34 401.383,1058.06Z" style="fill:url(#_Linear3);"/>
                    </g>
                    <g transform="matrix(2.32068,0,0,0.981892,-592.999,17.8941)">
                        <path d="M408.792,1113.8C412.193,1113.78 425.771,1122.71 428.983,1128.39C432.163,1134.01 432.873,1143.42 432.262,1148.07C431.651,1152.72 430.898,1161.82 429.094,1165.26C426.952,1169.35 425.318,1171.59 420.711,1171.59C417.039,1171.59 409.743,1163.85 405.26,1160.64C402.249,1158.48 394.331,1152.27 392.107,1144.21C390.701,1139.11 396.151,1120.61 397.902,1117.97C399.652,1115.33 405.39,1113.82 408.792,1113.8Z" style="fill:url(#_Linear4);"/>
                    </g>
                    <g transform="matrix(2.32068,0,0,0.981892,-592.999,17.8941)">
                        <path d="M316.815,1091.91C320.911,1090.58 326.887,1089.38 330.915,1091.95C334.943,1094.52 336.304,1097.34 340.419,1096.74C344.533,1096.13 345.604,1095.26 346.179,1091.71C346.754,1088.16 348.402,1088.34 350.203,1087.39C352.004,1086.44 355.213,1085.29 357.646,1089.85C360.08,1094.42 362.488,1096.38 366.079,1095.85C369.67,1095.33 370.261,1094.38 373.044,1096.42C375.828,1098.45 373.313,1100.77 373.712,1105.01C374.112,1109.26 370.827,1110.26 372.923,1113.8C375.02,1117.33 376.226,1117.02 379.712,1118.69C383.197,1120.36 383.57,1119.23 385.099,1123.58C386.629,1127.93 386.388,1130.7 384.591,1133.76C382.793,1136.82 383.521,1138.11 379.473,1138.42C375.424,1138.73 371.019,1137.89 367.625,1138.41C364.207,1138.94 364.805,1139.7 362.858,1141.63C361.366,1143.12 362.222,1145.43 361.857,1151.87C361.493,1158.32 363.125,1157.24 360.868,1162.11C358.756,1166.67 352.643,1169.71 349.198,1167.67C345.706,1165.61 347.151,1163.3 343.061,1162.73C339.535,1162.24 339.857,1165.14 334.669,1165.37C327.402,1165.69 317.231,1162.16 314.276,1156.45C311.321,1150.75 308.894,1149.61 306.07,1140.84C303.245,1132.07 303.246,1131.73 302.943,1122.97C302.64,1114.2 302.385,1116.82 304.279,1110.21C306.173,1103.6 312.718,1093.24 316.815,1091.91Z" style="fill:url(#_Linear5);"/>
                    </g>
                    <g transform="matrix(2.32068,0,0,0.981892,-592.999,17.8941)">
                        <path d="M66.123,1097.81C65.567,1096.68 55.071,1118.76 48.64,1144.3C45.876,1155.28 44.805,1166.81 43.602,1177.03C40.029,1207.38 49.284,1224.14 51.049,1229.29C54.793,1240.21 55.637,1241.22 59.872,1251.56C64.106,1261.89 66.873,1260.84 74.476,1270.98C82.079,1281.12 84.122,1282.2 92.87,1290.12C101.618,1298.03 100.737,1299.45 109.738,1303.66C118.738,1307.86 122.828,1298.31 129.571,1294.64C136.314,1290.98 135.66,1295.81 140.966,1289.21C146.272,1282.62 147.396,1290.02 152.528,1292.07C157.66,1294.12 156.942,1297.53 155.137,1303.57C153.332,1309.62 153.343,1311.3 153.396,1317.75C153.45,1324.2 155.221,1326.48 159.199,1334.93C163.178,1343.38 167.27,1341.82 173.35,1345.02C179.431,1348.23 180.102,1348.23 187.645,1345.4C195.188,1342.56 192.934,1342.6 197.984,1336.82C203.035,1331.03 203.07,1329.2 205.02,1329.54C207.139,1329.92 206.841,1332.9 207.969,1335.08C211.213,1341.33 210.304,1339.62 213.23,1343.99C216.157,1348.35 223.307,1347.68 232.085,1340.17C237.219,1335.78 234.246,1337.9 236.877,1329.59C239.508,1321.27 239.723,1326.79 245.491,1316.9C251.26,1307.01 252.085,1310.67 263.35,1304.08C274.615,1297.48 265.074,1299.88 270.89,1292.69C276.706,1285.51 268.203,1285.64 261.857,1279.41C255.51,1273.19 257.719,1274.37 256,1263.81C254.281,1253.24 253.181,1254.34 247.419,1248.33C241.657,1242.31 242.54,1239 236.877,1234.58C231.214,1230.16 225.639,1229.62 222.885,1226.48C220.13,1223.35 222.509,1222.89 226.573,1220.14C230.636,1217.4 235.185,1217.41 236.877,1215.14C238.569,1212.87 238.471,1206.77 233.268,1200.43C228.065,1194.1 227.77,1196.95 218.474,1194C209.178,1191.05 212.551,1188.47 214.8,1181.02C217.05,1173.57 219.925,1171.69 222.879,1165.78C225.833,1159.88 221.18,1157.88 216.941,1155.29C212.701,1152.71 209.099,1151.76 206.554,1148.77C204.009,1145.78 206.432,1145.01 210.332,1142.69C214.232,1140.38 213.335,1131.99 212.847,1127.42C212.36,1122.85 207.844,1122.11 202.441,1122.01C197.038,1121.91 194.036,1121.48 190.848,1117.37C187.659,1113.26 192.31,1110.65 201.215,1108.31C210.119,1105.96 212.864,1109.4 223.63,1108.31C234.395,1107.22 227.927,1095.9 228.593,1086.52C229.26,1077.14 224.946,1073.31 221.593,1067.52C218.24,1061.74 209.883,1059.03 206.53,1058.67C203.176,1058.3 199.522,1056.73 194.343,1055.39C189.164,1054.04 192.239,1048.16 177.074,1050.98C161.908,1053.8 160.368,1047.62 148.222,1056.92C136.077,1066.21 137.751,1064.17 134.738,1069.12C131.724,1074.06 134.322,1075.84 128.599,1075.88C122.876,1075.92 126.114,1071.89 118.073,1077.55C110.032,1083.2 104.665,1082.38 106.849,1090.64C109.033,1098.89 112.601,1096.28 112.101,1100.02C111.602,1103.75 108.213,1099.88 105.697,1108.31C103.181,1116.74 108.067,1114.07 102.77,1119.26C97.473,1124.44 98.331,1121.88 93.478,1122.63C88.625,1123.37 86.28,1123.08 85.24,1118.09C84.201,1113.1 84.496,1110.18 83.635,1105.22C82.773,1100.25 80.974,1100.96 83.729,1096.11C86.484,1091.26 87.806,1089.64 91.854,1086.52C95.903,1083.41 95.785,1084.78 100.34,1078.89C104.894,1072.99 103.556,1074.37 108.578,1069.04C113.6,1063.72 114.217,1063.47 116.834,1058.38C119.451,1053.3 120.132,1051.06 112.014,1056.17C103.895,1061.29 99.963,1063.63 94.008,1068.74C88.054,1073.85 83.908,1076.37 81.557,1081.1C79.852,1084.54 79.808,1083.11 79.336,1084.34C78.583,1086.31 78.526,1085.91 78.459,1086.52C77.695,1093.41 79.048,1099.1 75.792,1104.07C74.909,1105.41 74.839,1105.4 74.52,1105.64C74.272,1105.82 74.224,1105.66 72.563,1108.31C68.93,1114.09 68.342,1116.08 66.781,1108.31C65.22,1100.54 67.628,1100.85 66.123,1097.81Z" style="fill:url(#_Linear6);"/>
                    </g>
                    <g transform="matrix(2.32068,0,0,0.981892,-592.999,17.8941)">
                        <path d="M391.878,1186.02C385.138,1187.24 384.894,1183.58 381.84,1191.71C378.786,1199.84 377.661,1197.43 379.248,1204.42C380.835,1211.41 382.161,1211.53 386.109,1213.37C390.056,1215.2 392.701,1216.01 396.706,1213.81C400.711,1211.62 403.524,1213.76 402.323,1205.72C401.121,1197.69 400.906,1194.46 398.401,1191C395.896,1187.54 398.617,1184.81 391.878,1186.02Z" style="fill:url(#_Linear7);"/>
                    </g>
                </g>
                <g id="Shadow" transform="matrix(2.71897,0,0,1.15041,-751.477,-183.32)">
                    <circle cx="276.676" cy="1194" r="212.993" style="fill:url(#_Linear8);"/>
                </g>
            </g>
        </g>
    </g>
    <defs>
        <linearGradient id="_Linear1" x1="0" y1="0" x2="1" y2="0" gradientUnits="userSpaceOnUse" gradientTransform="matrix(119.682,404.114,-404.114,119.682,231.601,987.649)"><stop offset="0" style="stop-color:rgb(184,184,184);stop-opacity:1"/><stop offset="0.25" style="stop-color:rgb(143,143,143);stop-opacity:1"/><stop offset="0.46" style="stop-color:rgb(127,127,127);stop-opacity:1"/><stop offset="0.75" style="stop-color:rgb(137,137,137);stop-opacity:1"/><stop offset="1" style="stop-color:rgb(171,171,171);stop-opacity:1"/></linearGradient>
        <linearGradient id="_Linear2" x1="0" y1="0" x2="1" y2="0" gradientUnits="userSpaceOnUse" gradientTransform="matrix(-389.673,297.251,-297.251,-389.673,432.461,1050.23)"><stop offset="0" style="stop-color:rgb(90,90,90);stop-opacity:1"/><stop offset="1" style="stop-color:rgb(47,47,47);stop-opacity:1"/></linearGradient>
        <linearGradient id="_Linear3" x1="0" y1="0" x2="1" y2="0" gradientUnits="userSpaceOnUse" gradientTransform="matrix(-389.673,297.251,-297.251,-389.673,432.461,1050.23)"><stop offset="0" style="stop-color:rgb(90,90,90);stop-opacity:1"/><stop offset="1" style="stop-color:rgb(47,47,47);stop-opacity:1"/></linearGradient>
        <linearGradient id="_Linear4" x1="0" y1="0" x2="1" y2="0" gradientUnits="userSpaceOnUse" gradientTransform="matrix(-389.673,297.251,-297.251,-389.673,432.461,1050.23)"><stop offset="0" style="stop-color:rgb(90,90,90);stop-opacity:1"/><stop offset="1" style="stop-color:rgb(47,47,47);stop-opacity:1"/></linearGradient>
        <linearGradient id="_Linear5" x1="0" y1="0" x2="1" y2="0" gradientUnits="userSpaceOnUse" gradientTransform="matrix(-389.673,297.251,-297.251,-389.673,432.461,1050.23)"><stop offset="0" style="stop-color:rgb(90,90,90);stop-opacity:1"/><stop offset="1" style="stop-color:rgb(47,47,47);stop-opacity:1"/></linearGradient>
        <linearGradient id="_Linear6" x1="0" y1="0" x2="1" y2="0" gradientUnits="userSpaceOnUse" gradientTransform="matrix(-389.673,297.251,-297.251,-389.673,432.461,1050.23)"><stop offset="0" style="stop-color:rgb(90,90,90);stop-opacity:1"/><stop offset="1" style="stop-color:rgb(47,47,47);stop-opacity:1"/></linearGradient>
        <linearGradient id="_Linear7" x1="0" y1="0" x2="1" y2="0" gradientUnits="userSpaceOnUse" gradientTransform="matrix(-389.673,297.251,-297.251,-389.673,432.461,1050.23)"><stop offset="0" style="stop-color:rgb(90,90,90);stop-opacity:1"/><stop offset="1" style="stop-color:rgb(47,47,47);stop-opacity:1"/></linearGradient>
        <linearGradient id="_Linear8" x1="0" y1="0" x2="1" y2="0" gradientUnits="userSpaceOnUse" gradientTransform="matrix(425.986,0,0,425.986,63.6831,1185.73)"><stop offset="0" style="stop-color:black;stop-opacity:0.6"/><stop offset="0.47" style="stop-color:rgb(70,70,70);stop-opacity:0.46"/><stop offset="1" style="stop-color:white;stop-opacity:0.09"/></linearGradient>
    </defs>
</svg>
