<?xml version="1.0" encoding="utf-8"?>
<svg version="1.1" xmlns="http://www.w3.org/2000/svg" x="0px"
     class="drop-shadow-sharp"
     y="0px"
     width="100%" height="100%"
     viewBox="0 0 500 500" style="enable-background:new 0 0 500 500;" xml:space="preserve">
  <style type="text/css">
    .st0{fill:#6661A8;}
    .st1{fill:#E04B94;}
    .st2{fill:#ECA349;}
    .st3{fill:#48A8DF;}
    .st4{fill:#FFFFFF;}
  </style>
  <g>
    <path class="st3" d="M317.01,14.28C295.7,8.24,273.24,4.94,250,4.94C114.47,4.94,4.61,114.81,4.61,250.34
      c0,14.95,1.41,29.57,3.97,43.78L317.01,14.28z"/>
      <path class="st2" d="M418.92,72.57c-18.71-17.78-40.11-32.74-63.69-43.95L19.11,333.58c8.89,24.65,21.69,47.41,37.53,67.68
      L418.92,72.57z"/>
      <path class="st0" d="M180.23,485.62c22.11,6.56,45.52,10.11,69.77,10.11c135.53,0,245.39-109.87,245.39-245.39
      c0-15.94-1.58-31.49-4.49-46.58L180.23,485.62z"/>
      <path class="st1" d="M479.91,164.71c-8.87-23.7-21.25-45.69-36.57-65.28L81.03,428.15c18.08,17.2,38.81,31.61,61.46,42.7
      L479.91,164.71z"/>
  </g>
</svg>
