<svg version="1.1" id="logo"
	xmlns="http://www.w3.org/2000/svg"
	xmlns:xlink="http://www.w3.org/1999/xlink" x="0px" y="0px" style="enable-background:new 0 0 283.46 283.46;" xml:space="preserve" viewBox="13.84 97.58 255.78 86.41">
	<style type="text/css">
    path {
      fill: black;
    }
  </style>
	<g>
		<path d="M22.79,140l30.84,12.75l-2.24,6.71L13.84,143.5v-6.91l37.55-15.96l2.24,6.71L22.79,140z"></path>
		<path d="M107.73,106.53L98,147.39c-0.71,2.79-1.52,5.43-2.43,7.93c-0.91,2.5-2.19,4.69-3.84,6.57c-1.65,1.88-3.76,3.37-6.32,4.48       c-2.56,1.1-5.79,1.65-9.68,1.65c-2.01,0-3.84-0.19-5.5-0.58c-1.65-0.39-3.15-0.86-4.48-1.41c-1.33-0.55-2.45-1.15-3.36-1.8       c-0.91-0.65-1.59-1.23-2.04-1.75l4.18-6.32c0.45,0.46,1.04,0.97,1.75,1.56c0.71,0.58,1.56,1.12,2.53,1.6s2.04,0.91,3.21,1.27       c1.17,0.36,2.46,0.53,3.89,0.53c3.89,0,6.92-1.15,9.1-3.45c2.17-2.3,3.88-5.98,5.11-11.04l7.98-33.27H77.66l1.56-6.81H107.73z"></path>
		<path d="M135.16,167.24c-0.32-0.65-0.62-1.35-0.88-2.09c-0.26-0.74-0.46-1.57-0.58-2.48c-1.3,1.17-3.1,2.32-5.4,3.45       c-2.3,1.13-5.01,1.7-8.12,1.7c-5.06,0-8.77-1.52-11.14-4.57c-2.37-3.05-3.55-6.91-3.55-11.58c0-3.89,0.65-7.69,1.95-11.38       c1.3-3.7,3.26-7.01,5.89-9.92c2.63-2.92,5.92-5.27,9.87-7.05c3.96-1.78,8.56-2.68,13.82-2.68c0.78,0,1.67,0.03,2.68,0.1       c1.01,0.07,2.03,0.19,3.07,0.39c1.04,0.19,2.06,0.44,3.06,0.73c1.01,0.29,1.9,0.63,2.68,1.02l-6.62,27.24       c-0.32,1.36-0.6,2.64-0.83,3.84c-0.23,1.2-0.34,2.48-0.34,3.84c0,1.36,0.13,2.71,0.39,4.04c0.26,1.33,0.65,2.81,1.17,4.43       L135.16,167.24z M121.84,161.21c2.46,0,4.65-0.52,6.57-1.56c1.91-1.04,3.52-2.27,4.82-3.7c0.06-0.97,0.18-2.08,0.34-3.31       c0.16-1.23,0.37-2.4,0.63-3.5l5.35-21.31c-0.32-0.13-0.94-0.24-1.85-0.34c-0.91-0.1-1.62-0.15-2.14-0.15c-3.31,0-6.31,0.65-9,1.95       c-2.69,1.3-5.01,3.03-6.96,5.2c-1.95,2.17-3.44,4.67-4.48,7.49c-1.04,2.82-1.56,5.76-1.56,8.8c0,1.49,0.13,2.87,0.39,4.13       c0.26,1.27,0.7,2.35,1.31,3.26c0.62,0.91,1.46,1.64,2.53,2.19C118.87,160.93,120.21,161.21,121.84,161.21z"></path>
		<path d="M157.45,166.76h-7.98l10.41-43.49c2.66-0.78,5.51-1.41,8.56-1.9s5.8-0.73,8.27-0.73c2.59,0,4.83,0.36,6.71,1.07       c1.88,0.71,3.41,1.7,4.57,2.97c1.17,1.26,2.03,2.77,2.58,4.52c0.55,1.75,0.83,3.66,0.83,5.74c0,1.36-0.13,2.77-0.39,4.23       s-0.58,2.93-0.97,4.43l-5.54,23.16h-7.98l5.16-21.4c0.39-1.62,0.78-3.26,1.17-4.91c0.39-1.65,0.58-3.26,0.58-4.82       c0-2.27-0.65-4.17-1.95-5.69c-1.3-1.52-3.67-2.29-7.1-2.29c-1.49,0-2.94,0.08-4.33,0.24c-1.4,0.16-2.55,0.41-3.45,0.73       L157.45,166.76z"></path>
		<path d="M204.23,183.38l-8.25,0.61l20.92-85.82l8.05-0.59L204.23,183.38z"></path>
		<path d="M229.83,127.35l2.24-6.71l37.55,15.96v6.91l-37.55,15.96l-2.24-6.71L260.67,140L229.83,127.35z"></path>
	</g>
</svg>
