<svg xmlns="http://www.w3.org/2000/svg" viewBox="0 0 392.37 391.05"><defs><style>.cls-1{fill:#007aff;width=2rem;height=2rem}</style></defs><title>JM_Logo</title><path class="cls-1" d="M193.6,32.75A162.2,162.2,0,1,0,355.79,194.94,162.2,162.2,0,0,0,193.6,32.75ZM160,68.84a11.2,11.2,0,0,1,8.81-4.25A10.56,10.56,0,0,1,177.42,68q3.45,3.69,3.2,9.74A15.11,15.11,0,0,1,177.17,87a11.22,11.22,0,0,1-8.88,4,10.08,10.08,0,0,1-8.75-3.63,13,13,0,0,1-3-9.19A15.85,15.85,0,0,1,160,68.84ZM295.78,159l-14.67,87.68H260l14.55-87.92.37-10.36q-.24-8.76-4.62-13.63t-12.52-4.87q-9.74-.24-17.51,7.89a35.12,35.12,0,0,0-9.49,19.36v.62l-15.17,88.91H194.17l14.68-87.8a69.14,69.14,0,0,0,.24-10.11q-.85-18.13-16.77-18.75c-10.11-.16-21.5,3.75-24,14.57h0l-20,117.87q-2.7,20-11.28,29.41T114.53,301a53.8,53.8,0,0,1-12.7-2.46l1.85-18.25a42.19,42.19,0,0,0,8.5,1.35q11,0,14.18-16L148.58,135l3.17-21.67,19.86-.12,0,.12h2L172,122.67q13.13-12.26,29.82-11.84a32,32,0,0,1,17.08,5,26.07,26.07,0,0,1,10.42,14.18q15.9-19.61,36.37-19.36,13.44.38,21.21,8.51t9,22.69A91.77,91.77,0,0,1,295.78,159Z"/></svg>
