<svg viewBox="0 0 3440 65" xmlns="http://www.w3.org/2000/svg">
  <path d="M 0 8 C 50.5 8 50.5 43 101 43 L 101 43 L 101 0 L 0 0 Z" stroke-width="0">
  </path>
  <path d="M 100 43 C 356.5 43 356.5 13 613 13 L 613 13 L 613 0 L 100 0 Z" stroke-width="0">
  </path>
  <path d="M 612 13 C 904 13 904 48 1196 48 L 1196 48 L 1196 0 L 612 0 Z" stroke-width="0">
  </path>
  <path d="M 1195 48 C 1362 48 1362 39 1529 39 L 1529 39 L 1529 0 L 1195 0 Z" stroke-width="0">
  </path>
  <path d="M 1528 39 C 1716 39 1716 56 1904 56 L 1904 56 L 1904 0 L 1528 0 Z" stroke-width="0">
  </path>
  <path d="M 1903 56 C 2051.5 56 2051.5 30 2200 30 L 2200 30 L 2200 0 L 1903 0 Z" stroke-width="0">
  </path>
  <path d="M 2199 30 C 2402 30 2402 47 2605 47 L 2605 47 L 2605 0 L 2199 0 Z" stroke-width="0">
  </path>
  <path d="M 2604 47 C 2743.5 47 2743.5 21 2883 21 L 2883 21 L 2883 0 L 2604 0 Z" stroke-width="0">
  </path>
  <path d="M 2882 21 C 3061 21 3061 44 3240 44 L 3240 44 L 3240 0 L 2882 0 Z" stroke-width="0">
  </path>
  <path d="M 3239 44 C 3339.5 44 3339.5 8 3440 8 L 3440 8 L 3440 0 L 3239 0 Z" stroke-width="0">
  </path>
</svg>
